<svg width="69.0817" height="68.0970" viewBox="0 0 69.0817 68.0970" fill="none" xmlns="http://www.w3.org/2000/svg"><g transform="translate(0.0000 0.0000)">
<g id="Group">
<path id="Vector" d="M67.7133 58.6788L56.9534 47.8285C55.0989 45.9592 52.7707 45.6646 50.3253 46.9294L46.5909 43.3584C55.9854 31.9443 54.6761 15.9381 43.7226 6.45432C32.9678 -2.86186 16.9044 -1.99323 7.10735 8.41509C-2.64891 18.7828 -2.29228 34.9769 7.75437 44.928C18.071 55.1484 34.2211 55.4125 44.9351 45.1261L48.6389 48.7581C47.2481 50.5055 46.4024 53.213 47.9308 54.7318L60.1834 66.9485C62.3028 69.0566 65.8741 67.9543 67.5146 66.1155C69.1908 64.2309 69.8989 60.8834 67.7133 58.6788ZM26.4059 50.2566C13.1496 50.2566 2.39989 39.5384 2.39989 26.321C2.39989 13.1037 13.1496 2.38548 26.4059 2.38548C39.6622 2.38548 50.4119 13.0986 50.4119 26.321C50.4119 39.5435 39.6673 50.2566 26.4059 50.2566ZM65.6754 64.6931C64.7024 65.6735 62.3079 65.9428 60.9782 64.6017L49.8464 53.3705C49.1942 52.7101 50.1113 50.5462 50.687 49.8756C51.3238 49.1289 53.6164 48.0622 54.3551 48.7886L65.3086 59.5576C66.8421 61.0662 67.2803 63.0676 65.6754 64.6931Z" fill="#0854A5"/>
<path id="Vector_2" d="M60.9884 16.0143C60.6216 16.1362 59.5771 15.8924 59.2766 15.7146C58.8741 15.4759 59.4345 14.0231 59.9083 13.8605L65.5022 11.915C65.9149 11.7728 67.0663 12.235 67.1682 12.6617C67.2701 13.0884 66.7097 14.079 66.2359 14.2415L60.9833 16.0194L60.9884 16.0143Z" fill="#0854A5"/>
<path id="Vector_3" d="M67.2548 27.9415L61.8086 26.8341C61.4418 26.7579 60.7591 26.1534 60.5604 25.8537C60.3108 25.4778 61.4927 24.34 61.9767 24.4314L67.5248 25.4677C67.8814 25.5337 68.4877 26.1585 68.6864 26.4176C68.9513 26.7681 67.7795 28.0431 67.2599 27.9415H67.2548Z" fill="#0854A5"/>
</g>
</g><g transform="translate(53.9500 0.0900)">
<path id="Vector" d="M2.05533 6.3551C1.80569 6.67004 0.557506 6.90879 0.262016 6.64465C-0.0334736 6.3805 -0.0997042 5.27821 0.170312 4.93279L3.69071 0.457565C3.97092 0.101985 4.93381 -0.13676 5.28534 0.0867466C5.63687 0.310254 5.87632 1.5243 5.59102 1.88496L2.06043 6.3551H2.05533Z" fill="#0854A5"/>
</g></svg>