<svg width="50" height="54" viewBox="0 0 50 54" fill="none" xmlns="http://www.w3.org/2000/svg">

<g id="Fintechs">
<g id="Group">
<path id="Vector" d="M49.4666 0.14081C43.864 -0.470408 38.9569 0.985475 34.088 3.01438C26.7634 6.06198 21.1523 11.5884 17.4497 18.6471C13.3018 17.2931 9.48052 18.2566 6.60922 21.5122C5.6804 22.5691 -1.48297 31.088 0.277126 32.0473C0.603698 32.2255 1.29076 32.3911 1.80395 32.425L11.1219 33.0405L11.1388 36.0796L9.26847 39.1569C11.3551 41.5424 13.8108 43.7198 16.5294 45.5747C18.9172 45.4516 19.0529 42.5908 22.1151 43.2741L24.3205 52.6207C25.4402 57.3746 34.1813 45.7063 35.0423 44.3735C37.0271 41.2962 36.6963 37.9005 35.5554 34.4497C46.2645 26.6821 51.8162 13.3924 49.4666 0.14081ZM47.804 1.88109C48.3469 5.61631 48.2621 9.16901 47.2908 12.8491L37.1374 3.99912C40.6025 2.64086 43.8597 1.97447 47.804 1.88109ZM2.4359 30.498C5.5447 26.1261 10.0107 17.4672 16.3046 20.4553L11.8005 31.1304L2.4359 30.498ZM16.7075 43.2869L11.7877 39.3437C11.9023 38.673 12.25 37.926 12.7547 36.9964L18.6585 41.9923C18.4422 42.3234 17.1698 43.342 16.7075 43.2869ZM25.9576 51.6529L23.6801 42.2045L33.8971 35.8292C36.7133 42.5908 30.4151 46.8056 25.9576 51.6529ZM20.8724 41.2707L12.9923 34.5728C14.6718 28.5412 17.2292 22.8408 20.4016 17.3823C23.9388 11.7115 28.5999 7.38205 35.038 4.76739L46.7013 15.1199C43.5374 28.0616 32.1794 35.4387 20.8724 41.2707Z" fill="#848484"/>
<path id="Vector_2" d="M5.48123 53.0024C5.09104 53.4693 4.02226 53.8217 3.80595 53.5373C3.58965 53.2529 3.47515 52.336 3.70842 52.0602L9.69274 44.9335C9.90056 44.6831 10.6979 44.5133 11.0202 44.5218C11.3426 44.5303 11.5165 45.7655 11.2747 46.0541L5.48548 53.0067L5.48123 53.0024Z" fill="#848484"/>
<path id="Vector_3" d="M12.0679 52.893C11.8601 53.1562 10.5793 53.3727 10.5157 53.1095C10.4351 52.7572 10.3884 52.0654 10.5199 51.7173L13.5142 47.9099C13.6839 47.6935 14.5067 47.5788 14.7866 47.6425C15.1598 47.7274 15.2107 48.9074 14.935 49.2554L12.0637 52.8973L12.0679 52.893Z" fill="#848484"/>
<path id="Vector_4" d="M4.66653 45.9524C4.40782 46.258 3.63591 46.4702 3.36024 46.3769C2.99125 46.2538 2.92763 45.0526 3.19482 44.7427L6.12126 41.3598C6.35453 41.0881 7.53781 41.173 7.64384 41.4956C7.74987 41.8182 7.59721 42.5313 7.37242 42.7944L4.66229 45.9567L4.66653 45.9524Z" fill="#848484"/>
<path id="Vector_5" d="M32.1158 13.957C28.8246 13.957 26.1611 16.6226 26.1611 19.9122C26.1611 23.2017 28.8246 25.8715 32.1158 25.8715C35.4069 25.8715 38.0704 23.2017 38.0704 19.9122C38.0704 16.6226 35.4027 13.957 32.1158 13.957ZM32.1115 23.8469C29.94 23.8469 28.1842 22.0854 28.1842 19.9164C28.1842 17.7474 29.94 15.9902 32.1115 15.9902C34.283 15.9902 36.0389 17.7474 36.0389 19.9164C36.0389 22.0854 34.2788 23.8469 32.1115 23.8469Z" fill="#848484"/>
</g>
</g>
</svg>
