<svg preserveAspectRatio="none" overflow="visible" style="display: block;" width="55.4831" height="49.0488" viewBox="0 0 55.4831 49.0488" fill="none" xmlns="http://www.w3.org/2000/svg">
<g id="Group">
<path id="Vector" d="M44.8264 14.5476C44.183 12.1942 42.2293 10.7663 39.6159 11.3221L36.8216 2.45958C36.1664 0.380569 33.5835 -0.465919 31.6158 0.25034C29.7115 0.945669 28.5749 2.92468 29.1972 5.09904C24.8954 9.40589 17.4542 14.9267 11.8492 16.8336C9.64665 17.5824 7.39244 18.2428 5.21337 18.8056C0.862283 19.9288 -0.87297 23.9171 0.416154 27.9658C1.53621 31.482 4.24829 34.0889 8.26359 33.6447L10.654 40.9027C11.2105 42.5956 12.9763 43.1538 14.6012 42.5631C15.5898 42.2026 17.001 41.1282 16.6018 39.8655L14.0964 31.9425C16.1181 31.2122 18.215 30.9192 20.2039 30.703C20.5115 30.496 20.5373 29.5518 20.3142 29.3146L15.6039 29.9867L11.9337 18.2545C18.8725 15.5499 24.5127 11.2617 29.695 6.55946L31.5571 12.2849C29.6293 14.5616 30.6155 17.6429 31.8694 19.8847C32.447 20.9172 33.3487 21.3544 34.4711 21.3823C34.6238 21.8288 34.7975 22.3311 34.9924 22.5078C35.1873 22.6846 35.8612 22.473 36.1007 22.2799L30.4417 4.19441C30.005 2.79445 31.5782 1.54798 32.5409 1.41542C33.8559 1.23403 35.253 1.80611 35.6546 3.09212L36.784 6.72922C38.3103 11.643 40.1606 17.7359 41.4145 21.9311C41.5484 22.3846 42.2293 22.5148 42.4172 22.4195C42.5581 22.3474 42.8375 22.0125 42.7952 21.8544L42.234 19.6637C44.4201 18.6452 45.404 16.6568 44.8264 14.5476ZM15.2681 40.1073C15.4395 40.6492 14.3805 41.2561 13.9015 41.3747C13.4248 41.4933 12.2155 41.3375 11.9948 40.6701L9.57622 33.3424L12.8331 32.3378L15.2681 40.1073ZM14.357 30.4076C12.3681 31.0588 10.3417 31.8448 8.17436 32.2587C4.70617 32.9238 2.55294 30.1983 1.69117 27.3891C0.852891 24.6636 1.52682 21.6334 4.58174 20.466C6.44616 19.7544 8.50547 19.2568 10.6258 18.5847L14.357 30.4076ZM32.3038 14.6104C32.7452 15.6429 33.2125 17.0778 33.4497 18.1545C33.6845 19.2196 30.8996 17.3266 32.3038 14.6104ZM41.748 18.4126L40.0409 12.7035C41.5742 12.2151 42.9338 13.1174 43.4081 14.636C43.9176 16.2662 43.441 17.787 41.748 18.4126Z" fill="#0854A5"/>
<path id="Vector_2" d="M49.842 13.3546C49.6495 13.415 49.0624 13.1406 49.0108 12.9522C48.9474 12.715 49.2174 12.136 49.4945 12.0499L54.5336 10.4709C54.7731 10.3965 55.3578 10.6267 55.4634 10.8453C55.5691 11.0639 55.2263 11.6523 54.9492 11.7407L49.842 13.3546Z" fill="#0854A5"/>
<path id="Vector_3" d="M54.5947 20.0473L50.3093 18.752C50.0839 18.6846 49.7551 18.2753 49.7152 18.0497C49.6753 17.8241 50.3116 17.3776 50.53 17.4451L54.7825 18.7451C55.0056 18.8125 55.292 19.2427 55.3601 19.4381C55.4282 19.6334 54.7989 20.1078 54.5947 20.0473Z" fill="#0854A5"/>
<path id="Vector_4" d="M47.7639 8.20818C47.5901 8.43143 46.881 8.45236 46.7378 8.32678C46.5593 8.16865 46.5335 7.63611 46.7096 7.41518L49.3465 4.099C49.5156 3.88505 50.0416 3.75482 50.2482 3.7897C50.4548 3.82459 50.7131 4.41992 50.5582 4.61759L47.7615 8.20818H47.7639Z" fill="#0854A5"/>
<path id="Vector_5" d="M49.6306 29.3889C49.3817 29.1075 48.6233 28.861 48.1889 28.8634L42.4876 28.9006C43.2507 27.7564 43.4269 26.7053 42.767 25.7007C42.2035 24.8426 41.0505 24.1333 39.8788 24.6379C38.3971 25.2774 37.3452 26.6239 36.3895 28.0006C35.6052 27.0099 34.8491 26.0239 33.985 25.2332C32.8743 24.2193 31.2353 24.3054 30.3407 25.2681C29.4249 26.2518 29.378 27.6378 30.2421 28.8703L24.4751 28.9122C23.6203 28.9192 22.8525 29.6168 22.8619 30.468L22.9183 35.812C22.9229 36.3678 24.0759 36.6143 24.7522 36.5724L24.7991 47.8628C24.8038 48.7791 25.8088 49.0488 26.5579 49.0488L46.9209 49.0209C47.6887 49.0186 48.0738 48.3163 48.0738 47.5721V36.6213C48.8463 36.5771 49.5766 36.4352 49.9828 36.0353L50.0462 30.9191C50.0533 30.4447 49.8936 29.6889 49.6306 29.3889ZM26.0929 47.7326L26.0882 36.5701H34.1353L34.1376 47.7303H26.0929V47.7326ZM24.205 35.3399L24.1815 30.2587L34.1235 30.2145L34.1447 35.2981L24.205 35.3399ZM30.916 27.0541C30.9348 26.6681 31.2541 26.0634 31.5547 25.9518C31.921 25.8146 32.6395 25.9448 33.0974 26.0797L35.2812 28.7029C33.8653 29.0517 30.8268 29.0308 30.916 27.0541ZM35.4714 30.2215L37.3334 30.2261L37.3194 35.2864L35.4596 35.2818L35.4714 30.2215ZM37.3287 47.7279H35.462L35.4737 36.5678H37.3405L37.3287 47.7279ZM41.2853 25.9821C41.654 26.2332 41.9475 26.9262 41.7902 27.4495C41.3112 29.0424 39.1063 28.9703 37.4015 28.782C38.2117 27.8425 40.0033 25.11 41.2853 25.9821ZM38.6578 47.7279L38.6531 36.5678H46.8293L46.834 47.7256H38.6578V47.7279ZM38.6719 35.2888L38.6813 30.2563L48.6444 30.2424L48.6561 35.2818L38.6719 35.2888Z" fill="#0854A5"/>
</g>
</svg>
