<svg preserveAspectRatio="none" overflow="visible" style="display: block;" width="55.2051" height="57.8088" viewBox="0 0 55.2051 57.8088" fill="none" xmlns="http://www.w3.org/2000/svg">
<g id="Group 115">
<path id="Vector" d="M18.4096 0.0501953C21.2413 0.0503161 23.5521 2.13959 23.5521 4.71914C23.5521 6.54569 22.3887 8.12473 20.7025 8.88809V11.5697H30.5385V14.0238H36.7787V32.5805H55.1547V57.7592H19.7582V49.6215H0.0501953V14.0238H6.28555V11.5697H16.1166V8.88906C14.4301 8.12137 13.266 6.54608 13.266 4.71914C13.266 2.13952 15.5778 0.0501953 18.4096 0.0501953ZM20.7025 56.8939H54.2064V33.4496H20.7025V56.8939ZM0.998438 48.7514H19.7582V43.8266H13.7758V42.9564H19.7582V36.9262H13.7758V36.0561H19.7582V32.5805H35.8305V14.8891H30.5434V17.348H6.28555V14.8891H0.998438V48.7514ZM7.22891 16.4828H29.5902V12.435H7.22891V16.4828ZM19.7582 9.2123C19.3289 9.32068 18.8767 9.38318 18.4096 9.3832C17.9439 9.3832 17.493 9.32098 17.0648 9.21328V11.5648H19.7582V9.2123ZM18.4096 0.910547C16.0919 0.910547 14.2154 2.62344 14.2152 4.71426C14.2152 6.8051 16.0917 8.51406 18.4096 8.51406C20.7273 8.51394 22.6039 6.80503 22.6039 4.71426C22.6038 2.62351 20.7271 0.910668 18.4096 0.910547Z" fill="#848484" stroke="black" stroke-width="0.1"/>
<path id="Vector_2" d="M11.477 26.807L12.0736 27.3529L12.1137 27.39L12.0736 27.4271L7.04238 31.9857L7.0082 32.016L6.975 31.9857L3.84219 29.1439L3.80117 29.1068L3.84219 29.0697L4.44375 28.5287L4.47793 28.4984L4.51113 28.5287L7.0082 30.7934L11.4096 26.807L11.4428 26.7768L11.477 26.807Z" fill="#848484" stroke="black" stroke-width="0.1"/>
<path id="Vector_3" d="M11.477 33.8712L12.0736 34.4171L12.1137 34.4542L12.0736 34.4914L7.04238 39.0548L7.0082 39.0851L6.975 39.0548L3.84219 36.213L3.80117 36.1759L3.84219 36.1388L4.44375 35.5929L4.47695 35.5626L4.51113 35.5929L7.0082 37.8625L11.4096 33.8712L11.4428 33.841L11.477 33.8712Z" fill="#848484" stroke="black" stroke-width="0.1"/>
<path id="Vector_4" d="M11.477 40.9398L12.0736 41.4809L12.1137 41.518L12.0736 41.5551L7.04238 46.1186L7.0082 46.1488L6.975 46.1186L3.84219 43.2768L3.80117 43.2396L3.84219 43.2025L4.44375 42.6566L4.47695 42.6264L4.51113 42.6566L7.0082 44.9262L11.4096 40.9398L11.4428 40.9096L11.477 40.9398Z" fill="#848484" stroke="black" stroke-width="0.1"/>
<path id="Vector_5" d="M31.474 29.1601V30.0302H13.7748V29.1601H31.474Z" fill="#848484" stroke="black" stroke-width="0.1"/>
<path id="Vector_6" d="M37.4594 35.0016C38.9947 35.0017 40.2514 36.1349 40.2514 37.5387V37.5885H39.3021V37.5387C39.3021 36.6204 38.4779 35.869 37.4584 35.8668C36.4347 35.8698 35.6156 36.6253 35.6156 37.5387V37.5885H34.6674V37.5387C34.6674 36.1349 35.924 35.0016 37.4594 35.0016Z" fill="#848484" stroke="black" stroke-width="0.1"/>
<path id="Vector_7" d="M37.4594 39.3454C38.9947 39.3454 40.2514 40.4787 40.2514 41.8825V41.9323H39.3021V41.8825C39.3021 40.9641 38.4779 40.2127 37.4584 40.2106C36.4347 40.2135 35.6156 40.9691 35.6156 41.8825V41.9323H34.6674V41.8825C34.6674 40.4786 35.924 39.3454 37.4594 39.3454Z" fill="#848484" stroke="black" stroke-width="0.1"/>
<path id="Vector_8" d="M37.4594 43.685C38.9947 43.685 40.2514 44.8183 40.2514 46.2221V46.2719H39.3021V46.2221C39.3021 45.3085 38.478 44.5572 37.4584 44.5551C36.4345 44.558 35.6156 45.3089 35.6156 46.2221V46.2719H34.6674V46.2221C34.6674 44.8182 35.924 43.685 37.4594 43.685Z" fill="#848484" stroke="black" stroke-width="0.1"/>
<path id="Vector_9" d="M37.4594 48.0238C38.9947 48.0239 40.2514 49.1571 40.2514 50.5609V50.6107H39.3021V50.5609C39.3021 49.6473 38.478 48.8961 37.4584 48.8939C36.4345 48.8968 35.6156 49.6477 35.6156 50.5609V50.6107H34.6674V50.5609C34.6674 49.1571 35.924 48.0238 37.4594 48.0238Z" fill="#848484" stroke="black" stroke-width="0.1"/>
<path id="Vector_10" d="M31.8764 36.047V36.9171H23.185V36.047H31.8764Z" fill="#848484" stroke="black" stroke-width="0.1"/>
<path id="Vector_11" d="M30.8471 40.3952V41.2653H29.8881V40.3952H30.8471Z" fill="#848484" stroke="black" stroke-width="0.1"/>
<path id="Vector_12" d="M28.9545 40.3952V41.2653H27.9955V40.3952H28.9545Z" fill="#848484" stroke="black" stroke-width="0.1"/>
<path id="Vector_13" d="M27.0658 40.3952V41.2653H26.1068V40.3952H27.0658Z" fill="#848484" stroke="black" stroke-width="0.1"/>
<path id="Vector_14" d="M25.1732 40.3952V41.2653H24.2143V40.3952H25.1732Z" fill="#848484" stroke="black" stroke-width="0.1"/>
<path id="Vector_15" d="M31.8764 44.7348V45.6049H23.185V44.7348H31.8764Z" fill="#848484" stroke="black" stroke-width="0.1"/>
<path id="Vector_16" d="M30.8471 49.0785V49.9486H29.8881V49.0785H30.8471Z" fill="#848484" stroke="black" stroke-width="0.1"/>
<path id="Vector_17" d="M28.9545 49.0785V49.9486H27.9955V49.0785H28.9545Z" fill="#848484" stroke="black" stroke-width="0.1"/>
<path id="Vector_18" d="M27.0658 49.0785V49.9486H26.1068V49.0785H27.0658Z" fill="#848484" stroke="black" stroke-width="0.1"/>
<path id="Vector_19" d="M25.1732 49.0785V49.9486H24.2143V49.0785H25.1732Z" fill="#848484" stroke="black" stroke-width="0.1"/>
<path id="Vector_20" d="M51.724 36.0514V36.9215H43.0326V36.0514H51.724Z" fill="#848484" stroke="black" stroke-width="0.1"/>
<path id="Vector_21" d="M51.724 40.3952V41.2653H43.0326V40.3952H51.724Z" fill="#848484" stroke="black" stroke-width="0.1"/>
<path id="Vector_22" d="M50.6947 44.7348V45.6049H49.7357V44.7348H50.6947Z" fill="#848484" stroke="black" stroke-width="0.1"/>
<path id="Vector_23" d="M48.8021 44.7348V45.6049H47.8432V44.7348H48.8021Z" fill="#848484" stroke="black" stroke-width="0.1"/>
<path id="Vector_24" d="M46.9135 44.7348V45.6049H45.9545V44.7348H46.9135Z" fill="#848484" stroke="black" stroke-width="0.1"/>
<path id="Vector_25" d="M45.0209 44.7348V45.6049H44.0619V44.7348H45.0209Z" fill="#848484" stroke="black" stroke-width="0.1"/>
<path id="Vector_26" d="M50.6947 49.0785V49.9486H49.7357V49.0785H50.6947Z" fill="#848484" stroke="black" stroke-width="0.1"/>
<path id="Vector_27" d="M48.8021 49.0785V49.9486H47.8432V49.0785H48.8021Z" fill="#848484" stroke="black" stroke-width="0.1"/>
<path id="Vector_28" d="M46.9135 49.0785V49.9486H45.9545V49.0785H46.9135Z" fill="#848484" stroke="black" stroke-width="0.1"/>
<path id="Vector_29" d="M45.0209 49.0785V49.9486H44.0619V49.0785H45.0209Z" fill="#848484" stroke="black" stroke-width="0.1"/>
</g>
</svg>
