<svg preserveAspectRatio="none" overflow="visible" style="display: block;" width="63.3353" height="64.8318" viewBox="0 0 63.3353 64.8318" fill="none" xmlns="http://www.w3.org/2000/svg">
<g id="Group">
<path id="Vector" d="M63.3138 27.0715C62.6828 9.96092 47.5447 -2.73286 30.609 0.506866C21.33 2.28314 13.8007 9.12846 10.4761 16.8699C6.30848 26.5837 7.67651 36.5892 13.1644 44.8661L2.07724 55.6192C0.120683 57.5122 -0.70116 59.8399 0.703957 62.3161C1.62656 63.9439 4.94051 65.9058 7.06144 64.1295C11.5631 60.3489 15.5027 55.9427 19.5643 51.4198C28.6525 57.9629 40.1532 58.3075 49.6656 52.7666C58.5417 47.5968 63.7115 37.8193 63.3138 27.0715ZM5.96913 62.0828C5.12606 62.8569 3.04754 61.8707 2.64456 61.1072C2.10372 60.0838 2.41659 58.3659 3.3392 57.4698L14.4051 46.706L17.7509 49.967C13.9544 54.3414 10.4496 57.9841 5.96913 62.0828ZM35.7417 53.9649C21.5739 53.9649 10.089 42.4854 10.089 28.3229C10.089 14.1604 21.5739 2.68082 35.7417 2.68082C49.9095 2.68082 61.3944 14.1604 61.3944 28.3229C61.3944 42.4854 49.9095 53.9649 35.7417 53.9649Z" fill="#848484"/>
<path id="Vector_2" d="M51.2773 41.3666L51.1659 15.3587C47.8997 15.1413 45.4447 15.1466 42.4277 15.4859L42.3853 40.8682C42.3853 41.2712 42.0035 42.1832 41.6324 42.1407L40.047 41.9657L39.8826 24.0174L31.3405 24.1128L31.2769 40.8894C31.2716 41.2711 30.8315 41.9923 30.5134 42.1407C30.1953 42.2839 29.1507 41.637 29.1401 41.2605L28.9598 31.0218H20.4071L20.0678 41.409C20.0466 42.0294 19.8822 43.0474 19.7815 44.2351L51.3727 44.2192C51.4682 43.2436 51.2826 42.1619 51.2773 41.3666ZM26.7222 42.0665L22.4591 42.0559L22.4751 33.0472L26.7382 33.0578L26.7222 42.0665ZM37.6769 42.0771L33.4297 42.0612L33.4933 26.1224L37.7352 26.1383L37.6769 42.0771ZM44.6918 41.865L44.6441 17.4902L48.9496 17.469L49.0397 41.4249C48.0164 42.2839 46.1394 42.2468 44.6918 41.865Z" fill="#848484"/>
</g>
</svg>
